<?xml version="1.0" encoding="utf-8"?>
<!-- Generator: Adobe Illustrator 19.0.0, SVG Export Plug-In . SVG Version: 6.00 Build 0)  -->
<svg version="1.1" id="Layer_1" xmlns="http://www.w3.org/2000/svg" xmlns:xlink="http://www.w3.org/1999/xlink" x="0px" y="0px"
	 viewBox="0 0 40 40" style="enable-background:new 0 0 40 40;" xml:space="preserve">
<style type="text/css">
	.st0{fill:#FFFFFF;}
</style>
<g id="XMLID_11_">
	<path id="XMLID_10_" class="st0" d="M20.9,8.8c0,1.8,0,3.5,0,5.3c0,0.2-0.1,0.3-0.3,0.4c-2.7,0.8-4.6,3.3-4.6,6.1
		c0,2.8,1.9,5.3,4.6,6.1c0.2,0.1,0.3,0.1,0.3,0.4c0,3.6,0,7.1,0,10.7c0,0.5-0.1,0.7-0.7,0.7c-0.3,0-0.7,0-1,0
		c-0.7,0-1.2-0.5-1.2-1.2c0-0.6,0-1.2,0-1.8c0-0.3-0.1-0.5-0.5-0.6c-1.5-0.4-3-0.9-4.3-1.8c-0.3-0.2-0.5-0.2-0.8,0.1
		c-0.3,0.3-0.6,0.6-0.9,0.9c-0.7,0.7-1.6,0.7-2.3,0c-0.6-0.6-1.2-1.2-1.7-1.7c-0.7-0.7-0.7-1.6,0-2.3c0.3-0.3,0.6-0.6,1-1
		c0.2-0.2,0.3-0.5,0.1-0.8c-0.8-1.3-1.4-2.8-1.8-4.3c-0.1-0.3-0.3-0.5-0.6-0.5c-0.4,0-0.9,0-1.3,0c-1,0-1.7-0.7-1.7-1.7
		c0-0.8,0-1.6,0-2.4c0-1,0.7-1.6,1.6-1.7c0.5,0,0.9,0,1.4,0c0.3,0,0.5-0.2,0.6-0.5c0.4-1.5,0.9-3,1.8-4.3c0.2-0.3,0.1-0.5-0.1-0.8
		c-0.3-0.3-0.6-0.6-0.9-0.9c-0.6-0.7-0.6-1.6,0-2.3C8,8.3,8.6,7.7,9.2,7.1c0.7-0.7,1.6-0.6,2.3,0c0.3,0.3,0.6,0.6,1,1
		c0.2,0.2,0.5,0.3,0.7,0.1c1.3-0.8,2.8-1.4,4.3-1.8C17.9,6.3,18,6.1,18,5.7c0-0.6,0-1.2,0-1.7c0-0.7,0.4-1.2,1.2-1.2
		c0.4,0,0.7,0,1.1,0c0.5,0,0.6,0.2,0.6,0.6C20.9,5.2,20.9,7,20.9,8.8z"/>
	<path id="XMLID_9_" class="st0" d="M28.4,6.5c0,0.4,0,0.7,0,1.1c0,0.6-0.4,1-1,1.1c-0.8,0-1.5,0-2.3,0c-0.6,0-1-0.4-1.1-1.1
		c0-0.8,0-1.5,0-2.3c0-0.6,0.4-1,1-1c0.8,0,1.5,0,2.3,0c0.6,0,1,0.5,1,1.1C28.4,5.8,28.4,6.2,28.4,6.5z"/>
	<path id="XMLID_8_" class="st0" d="M28.4,15c0,0.4,0,0.7,0,1.1c0,0.6-0.4,1.1-1,1.1c-0.8,0-1.5,0-2.3,0c-0.6,0-1-0.5-1.1-1.1
		c0-0.7,0-1.5,0-2.2c0-0.6,0.4-1.1,1.1-1.1c0.7,0,1.4,0,2.2,0c0.7,0,1.1,0.4,1.1,1.1C28.4,14.3,28.4,14.7,28.4,15z"/>
	<path id="XMLID_7_" class="st0" d="M28.4,33.4c0,0.4,0,0.7,0,1.1c0,0.6-0.4,1.1-1,1.1c-0.8,0-1.5,0-2.3,0c-0.6,0-1-0.4-1-1
		c0-0.8,0-1.5,0-2.3c0-0.6,0.5-1.1,1.1-1.1c0.7,0,1.5,0,2.2,0c0.6,0,1.1,0.4,1.1,1.1C28.4,32.7,28.4,33.1,28.4,33.4z"/>
	<path id="XMLID_6_" class="st0" d="M33.2,18.4c0.4,0,0.7,0,1.1,0c0.6,0,1.1,0.4,1.1,1.1c0,0.7,0,1.5,0,2.2c0,0.6-0.4,1.1-1,1.1
		c-0.8,0-1.5,0-2.3,0c-0.6,0-1-0.5-1-1.1c0-0.7,0-1.5,0-2.2c0-0.6,0.4-1.1,1.1-1.1C32.4,18.4,32.8,18.4,33.2,18.4z"/>
	<path id="XMLID_5_" class="st0" d="M26.2,27.1c-0.4,0-0.7,0-1.1,0c-0.6,0-1.1-0.4-1.1-1c0-0.8,0-1.5,0-2.3c0-0.6,0.4-1,1-1
		c0.8,0,1.5,0,2.3,0c0.6,0,1,0.4,1.1,1.1c0,0.7,0,1.5,0,2.2c0,0.6-0.4,1.1-1.1,1.1C26.9,27.1,26.6,27.1,26.2,27.1z"/>
	<path id="XMLID_15_" class="st0" d="M33.1,32.1c-0.4,0-0.7,0-1.1,0c-0.6,0-1.1-0.5-1.1-1.1c0-0.7,0-1.4,0-2.1
		c0-0.6,0.5-1.1,1.1-1.1c0.7,0,1.4,0,2.1,0c0.6,0,1.1,0.5,1.1,1.1c0,0.7,0,1.4,0,2.1c0,0.7-0.5,1.1-1.2,1.2
		C33.8,32.1,33.5,32.1,33.1,32.1C33.1,32.1,33.1,32.1,33.1,32.1z M33.2,29c-0.2,0-0.4,0-0.6,0c-0.2,0-0.3,0.1-0.3,0.3
		c0,0.4,0,0.8,0,1.3c0,0.2,0.1,0.3,0.3,0.3c0.2,0,0.4,0,0.6,0c0.9,0,0.9,0,0.9-0.9C34,29,34,29,33.2,29z"/>
	<path id="XMLID_12_" class="st0" d="M33.1,13.7c-0.3,0-0.7,0-1,0c-0.7,0-1.1-0.5-1.2-1.1c0-0.7,0-1.4,0-2.1c0-0.6,0.5-1.1,1.1-1.1
		c0.7,0,1.4,0,2.1,0c0.6,0,1.1,0.5,1.1,1.1c0,0.7,0,1.4,0,2.1c0,0.7-0.5,1.1-1.1,1.1C33.8,13.7,33.5,13.7,33.1,13.7z M34,11.6
		c0-0.2,0-0.5,0-0.7c0-0.2-0.1-0.2-0.2-0.2c-0.5,0-0.9,0-1.4,0c-0.2,0-0.2,0.1-0.2,0.2c0,0.4,0,0.9,0,1.3c0,0.2,0.1,0.2,0.2,0.2
		c0.2,0,0.5,0,0.7,0C34,12.4,34,12.4,34,11.6z"/>
</g>
</svg>
